<svg version="1" xmlns="http://www.w3.org/2000/svg" width="1170.667" height="1170.667" viewBox="0 0 878.000000 878.000000"><path d="M600.3 217c-4.5 1-7.7 3.3-10.9 7.7-1.6 2.1-2.9 3.9-2.9 4 0 .1-3-.7-6.5-1.9-9.1-2.9-22.3-2.9-30.7 0-3.4 1.2-6.6 2.2-7.1 2.2-.4 0-2.2-1.9-3.9-4.3-3.6-5.2-8.4-7.7-14.8-7.7-7.9 0-14.4 5.1-16.5 13-2 7.5 2.8 17 10.1 20 2.4 1 2.9 1.7 2.5 3.4-4 13.8-4.6 22.1-2.3 31.1 1.3 4.9 1.3 5.1-2.5 12.5-13.4 26-5.6 56.6 18.5 72.7 10.5 7.1 16.6 8.8 31.2 8.8 14.6 0 20.7-1.7 31.2-8.8 20.9-13.9 29.8-39.5 22.4-63.7-1.1-3.6-3.4-8.6-5-11.3L610 290l1.5-6.3c1.9-8.1 1.9-14.9-.1-22.2-2.9-10.5-2.9-9.9 1.5-12.8 9-6 10.8-19 3.8-26.5-4.2-4.5-10.6-6.5-16.4-5.2z"/><path d="M292.8 257c-12.3 2-25.7 7.6-42 17.7-20.6 12.7-31.7 24.6-35.9 38.4-2 6.6-2.1 6.7-6.4 7.8-5.5 1.4-11 6.1-12.6 10.8-1.8 5.6-.7 13.5 2.6 17.8 3.2 4.3 9.4 7.4 14.6 7.5 3.5 0 3.5 0 5.8 7.2 3 9.4 9.6 23.6 16.1 34.4 2.9 4.7 5 9.1 4.7 9.8-.3.8-41.3 59.5-91.1 130.5S58 668.2 58 668.5c0 .3 118.5.5 263.3.5h263.3l118-168.2 118.1-168.3-92.5-.3c-50.9-.1-92.7 0-93 .2-.2.3-.8 2.4-1.3 4.8s-1.4 5.2-1.9 6.3c-.5 1.1-2 4.6-3.4 7.7-7.6 17.7-23.1 31.8-42.1 38.4-7.2 2.6-9.3 2.8-21.5 2.9-12.2 0-14.3-.3-22.4-2.9-17.3-5.7-33-19.2-40.5-35-5.6-11.6-6.8-14.6-7.5-18.9l-.7-3.7H383.4l-1.8-5.8c-2.6-8.4-8.6-20.7-13.9-28.5l-4.6-6.9 2.1-4.1c5.7-11.2-.7-24.1-13.5-27.1-3.7-.9-10 .9-13.3 3.8l-2.7 2.3-4.1-2.3c-10.5-5.8-26.2-8.4-38.8-6.4zm27.8 9.8c5.1 2.6 10.8 8.9 12.4 13.7 2 6.2.9 15.5-2.6 21.1-8.5 13.8-29.4 15.4-40 3-11.2-13.1-6-32.9 10.4-39.2 5-1.9 14.7-1.2 19.8 1.4zm-60.5 27.7c17.3 5.9 22.6 27.7 9.8 40.4-4.9 5-10.3 7.1-17.9 7.1-8.3 0-13.3-2.3-18.7-8.3-16.6-18.9 2.9-47.3 26.8-39.2z"/><path d="M317.5 279.5c-3.3 3.3-3.2 7 .4 10.6 3.6 3.6 7.3 3.7 10.6.4 3.1-3 3.3-8.2.5-11.3-2.9-3.1-8.3-3-11.5.3zM262 305.3c-6.7 3.4-5.7 13.3 1.5 15.1 7.6 1.9 13.5-8.5 7.7-13.7-2.5-2.3-6.4-2.9-9.2-1.4z"/></svg>